PathFileType	4	(X/Y/Z)	C:/Users/beibeiliu/ov580/test_trc/User3\sequence.31_training_dense_right.trc
DataRate	CameraRate	NumFrames	NumMarkers	Units	OrigDataRate	OrigDataStartFrame	OrigNumFrames
120	120	16	19	mm	120	168	268
Frame#	Time	ThumbCMC			ThumbMCP			ThumbIP			ThumbTip			IndexMCP			IndexPIP			IndexTip			MiddleMCP			MiddlePIP			MiddleTip			RingMCP			RingPIP			RingTip			PinkyMCP			PinkyPIP			PinkyTip			BackHand1			BackHand2			BackHand3	
		X0	Y0	Z0	X1	Y1	Z1	X2	Y2	Z2	X3	Y3	Z3	X4	Y4	Z4	X5	Y5	Z5	X6	Y6	Z6	X7	Y7	Z7	X8	Y8	Z8	X9	Y9	Z9	X10	Y10	Z10	X11	Y11	Z11	X12	Y12	Z12	X13	Y13	Z13	X14	Y14	Z14	X15	Y15	Z15	X16	Y16	Z16	X17	Y17	Z17	X18	Y18	Z18	
167	1.39167	205.233	0.718506	4.44173	179.875	4.84369	-22.7919	159.002	-16.3909	-38.5193	145.856	-44.114	-30.9578	182.916	-9.63293	-59.559	161.215	9.08816	-43.6912	175.653	1.953	-15.3787	169.73	-23.3785	-56.5352	151.168	-1.29594	-40.8398	171.267	-9.58309	-7.61718	156.292	-39.6893	-43.7068	142.385	-14.8444	-33.1064	161.726	-8.87761	-8.55894	157.504	-52.8469	-36.4989	138.739	-33.6359	-38.6253	139.748	-27.5484	-7.65083	196.887	-60.5431	-4.43901	206.729	-57.2187	20.053	221.494	-34.1037	-0.232278	
168	1.4	205.033	-0.0282753	2.89526	180.442	4.8635	-28.645	156.519	-11.9579	-41.2995	144.096	-37.2375	-30.6657	182.968	-15.0059	-58.1928	157.808	5.17326	-42.5665	174.98	2.46029	-18.2737	165.865	-23.8527	-54.9399	147.482	-4.94304	-34.8145	170.139	-10.0041	-6.41044	158.023	-39.2695	-43.4476	140.88	-18.0956	-29.1996	166.44	-16.1763	-2.80251	150.781	-56.7158	-34.1075	134.086	-34.4797	-30.8689	147.878	-25.9451	-7.34528	196.387	-62.9778	-5.05525	203.206	-58.9161	22.6455	222.3	-32.6864	-2.74726	
169	1.40833	203.836	0.721141	2.71825	179.323	8.96983	-28.0202	156.439	-11.9025	-47.0275	142.859	-36.7717	-38.5498	178.684	-15.5642	-61.3772	158.388	5.66176	-48.4451	174.358	-2.59365	-18.2411	164.734	-30.3885	-53.3789	147.042	-10.0868	-37.6761	176.393	-13.8313	-6.87123	160.289	-41.2343	-42.9479	142.582	-19.5512	-26.6433	168.094	-18.4401	-3.49591	147.751	-59.1252	-31.5136	136.471	-34.2578	-26.516	156.146	-24.8154	-3.69431	198.144	-61.8518	-10.8381	204.824	-56.5709	21.5901	222.144	-33.188	-4.61121	
170	1.41667	207.542	2.90768	4.28141	183.743	10.7033	-23.4381	157.54	-3.83785	-43.6566	145.773	-28.0499	-34.9078	184.552	-10.186	-61.9943	163.944	8.95996	-45.9735	177.877	-0.648535	-18.4933	167.53	-23.3975	-56.4997	150.682	-4.3757	-37.9697	173.365	-13.126	-6.52334	160.837	-37.1226	-43.4508	147.178	-14.1598	-26.512	171.296	-15.6218	1.44836	152.455	-51.9662	-35.9967	139.26	-26.3141	-27.6978	159.986	-19.0298	-2.8882	197.018	-65.6157	-9.85523	201.748	-62.4301	20.3849	219.371	-37.9323	0.738539	
171	1.425	205.681	0.308549	7.62761	185.03	6.5274	-25.4474	162.758	-9.40958	-45.3904	150.665	-32.6397	-37.2972	192.646	-7.81688	-58.9984	170.373	12.7618	-47.4409	181.97	0.613383	-16.018	173.598	-22.1904	-57.085	156.721	0.890821	-39.2144	177.726	-13.6707	-6.60449	163.501	-31.2698	-46.6747	150.406	-11.4895	-25.4225	169.974	-19.2086	-1.38553	150.445	-49.7906	-39.7185	143.781	-24.8273	-32.0731	162.06	-24.8643	-6.73921	196.312	-63.2922	-13.1191	202.18	-61.315	20.3357	219.099	-38.2929	0.510757	
172	1.43333	210.378	-0.587427	0.40788	182.051	6.09946	-29.41	157.573	-10.8006	-35.9353	145.85	-33.1804	-23.0774	181.392	-17.9452	-59.9065	167.087	6.68096	-50.218	181.238	-0.160566	-19.0665	171.529	-30.6694	-54.6726	152.357	-4.30081	-39.4604	178.274	-9.13453	-8.64331	153.984	-39.1299	-42.3981	142.149	-14.7336	-32.221	163.155	-2.81701	-4.79734	151.521	-56.3177	-30.0725	132.537	-37.4623	-34.1067	141.577	-12.3879	-15.969	194.231	-63.6315	-0.875733	204.67	-58.2554	24.0693	222.112	-40.1525	-2.83727	
173	1.44167	212.656	-3.27699	9.7575	192.604	16.4381	-20.0928	165.791	7.50648	-36.7595	149.273	-9.154	-37.614	190.703	-6.19222	-55.9117	165.536	12.4477	-41.6726	179.841	-0.57321	-12.3768	170.19	-21.9414	-57.053	153.739	3.84242	-42.5375	172.356	-4.37334	-9.30903	160.24	-27.7436	-45.8942	144.124	-12.0335	-27.3301	167.249	-15.1397	-1.16601	146.021	-43.7462	-32.526	141.81	-19.7439	-25.1032	168.157	-19.9123	-2.67549	195.832	-62.1958	-11.9644	201.96	-64.2954	16.535	221.426	-38.038	0.127296	
174	1.45	213.926	-3.85137	0.148152	190.493	9.69394	-23.0745	161.016	-2.43727	-38.8961	142.283	-21.9375	-31.2631	191.095	-12.3035	-59.7722	175.343	12.2004	-48.3205	188.508	2.58178	-17.5513	172.083	-26.212	-57.5815	159.491	0.710013	-47.5009	177.732	-7.80681	-9.89959	160.745	-33.5151	-45.5263	147.253	-6.79441	-31.6125	168.746	-4.79035	-6.62809	153.691	-50.5409	-32.5896	138.145	-26.5065	-37.4806	149.633	-14.6965	-8.53438	193.968	-62.7597	-4.85177	202.111	-60.3975	22.4796	220.074	-44.7828	-1.42428	
175	1.45833	217.101	-4.03967	5.99608	197.148	9.53584	-22.6489	167.748	1.86307	-40.6657	147.687	-21.8112	-30.6313	194.492	-16.0726	-56.9911	178.554	11.5734	-45.6288	191.416	0.750958	-16.2621	176.3	-26.4161	-56.3623	163.086	3.60588	-43.5783	178.109	-8.43247	-9.08794	160.601	-34.0396	-45.7335	153.781	-4.70706	-37.8651	169.963	-4.64036	-7.37994	149.79	-45.3596	-36.8963	143.51	-19.3888	-37.3736	164.373	-11.8887	-11.1306	190.742	-62.9554	-4.73645	198.474	-60.1732	24.9006	218.565	-45.1778	4.6828	
176	1.46667	218.444	1.02353	2.09757	196.53	8.43407	-25.4775	169.508	-0.742116	-41.4364	153.319	-19.1098	-31.0346	196.832	-14.4207	-57.6814	177.361	9.33307	-45.2045	190.124	3.84601	-16.9635	174.545	-27.6931	-54.9289	162.125	0.394094	-44.4243	173.825	-2.66425	-8.2817	161.29	-38.7826	-42.9859	153.057	-11.3853	-36.0509	170.426	-9.40439	-8.792	154.988	-54.8241	-31.8622	143.186	-29.1822	-38.255	156.916	-16.2437	-15.8091	194.572	-63.0954	1.68442	201.287	-57.5407	29.9859	225.052	-37.529	4.01237	
177	1.475	215.356	-1.86481	7.38723	202.075	12.6209	-25.5028	178.122	-1.2595	-42.6923	158.23	-14.8761	-48.2709	199.909	-17.9767	-57.8196	179.256	7.00313	-49.3064	189.935	-0.025627	-17.1819	183.572	-29.591	-55.0688	163.312	0.908721	-43.5856	170.26	0.36687	-5.14872	167.216	-40.6986	-44.7458	156.199	-11.6365	-34.142	175.999	-17.0706	-3.6604	156.452	-51.9228	-36.9892	146.755	-23.6123	-29.5833	160.289	-24.8213	-5.13182	196.22	-64.6343	-6.27154	198.501	-62.534	26.5272	223.797	-40.1843	6.23116	
178	1.48333	217.949	-4.21401	3.80812	206.199	11.0505	-25.7642	182.034	1.94387	-44.7771	160.206	-17.8009	-40.0549	198.615	-12.4751	-59.7165	178.776	8.24305	-51.4964	188.989	-2.92714	-17.1197	177.12	-27.0824	-57.2591	162.025	-2.81272	-42.1158	180.999	-11.925	-8.94411	163.012	-35.527	-44.367	156.274	-9.3467	-31.6167	176.06	-15.7396	-4.58576	154.652	-48.0349	-35.7233	150.144	-21.2175	-28.8154	171.629	-21.5308	-5.244	195.107	-67.5179	-7.83613	199.446	-64.6433	26.3541	221.278	-43.9667	4.90401	
179	1.49167	220.352	-9.93195	3.22323	215.387	6.52772	-24.3353	190.886	3.55033	-47.1089	166.302	-10.7586	-46.2538	196.673	-12.0671	-60.3878	178.738	13.0851	-45.3228	189.283	0.789438	-16.647	179.909	-21.9723	-57.3536	164.786	2.17027	-39.6254	179.901	-12.8838	-8.98819	163.916	-28.755	-48.6427	153.257	-9.38246	-30.5655	178.913	-17.3324	-5.15467	150.363	-42.5446	-38.8583	146.597	-18.782	-28.5456	170.621	-18.952	-9.64658	197.035	-65.6173	-11.1093	201.256	-64.7668	18.2504	224.529	-45.3654	-2.93616	
180	1.5	222.194	-10.2015	3.32586	215.637	6.51251	-28.8859	192.471	1.59131	-48.1505	167.932	-14.299	-47.6425	204.927	-14.3371	-61.5021	187.759	11.0389	-48.5955	193.392	-1.94184	-20.1892	181.872	-23.2208	-58.4424	169.978	-0.183869	-41.6225	186.376	-14.4481	-8.84117	167.262	-35.7617	-50.6778	161.731	-7.66128	-38.8138	176.937	-13.982	-10.0878	154.751	-41.5799	-41.5898	155.112	-17.1411	-32.7774	172.212	-22.8221	-6.05404	194.275	-66.3923	-7.49234	194.659	-65.2871	24.1073	220.822	-48.7587	2.74939	
181	1.50833	224.88	-13.1472	7.76085	224.428	6.88568	-22.264	202.659	6.07986	-49.549	180.663	-4.30827	-53.0024	207.484	-16.2329	-60.3433	188.113	7.04222	-50.8621	196.196	-0.865578	-18.2275	186.395	-27.1585	-57.5921	173.67	0.490443	-44.4697	187.548	-14.8181	-7.75442	172.634	-35.8322	-47.2334	162.636	-9.19183	-32.5442	181.029	-18.4548	-4.95408	156.284	-46.6022	-40.9319	152.665	-18.0841	-31.9321	169.026	-21.0905	-7.32526	194.78	-68.8306	-9.25424	196.223	-67.2974	25.0262	225.587	-48.6595	1.75891	
182	1.51667	229.402	-15.7314	11.8259	232.281	-2.19285	-18.9343	224.865	7.99713	-46.8783	197.81	-0.861491	-58.9942	212.674	-17.964	-57.1054	195.08	7.06547	-49.2277	200.778	-4.5742	-15.4814	192.875	-25.4215	-56.616	177.947	0.446091	-40.2963	192.193	-15.5122	-6.79782	174.6	-31.0207	-50.1829	169.372	-4.7542	-34.6016	184.147	-13.5781	-7.82049	162.968	-40.0406	-42.1866	158.652	-14.6842	-32.8061	172.286	-24.1406	-4.59795	193.836	-70.6668	-9.29182	196.174	-66.7208	23.0345	224.808	-51.0099	3.03334	
